<?xml version="1.0" encoding="UTF-8" standalone="no"?>
<!DOCTYPE svg PUBLIC "-//W3C//DTD SVG 1.1//EN"
 "http://www.w3.org/Graphics/SVG/1.1/DTD/svg11.dtd">
<!-- Generated by graphviz version 7.0.1 (20221109.1506)
 -->
<!-- Title: ER Pages: 1 -->
<svg width="410pt" height="392pt"
 viewBox="0.00 0.00 410.33 392.00" xmlns="http://www.w3.org/2000/svg" xmlns:xlink="http://www.w3.org/1999/xlink">
<g id="graph0" class="graph" transform="scale(1 1) rotate(0) translate(4 388)">
<title>ER</title>
<polygon fill="white" stroke="none" points="-4,4 -4,-388 406.33,-388 406.33,4 -4,4"/>
<!--  3  -->
<g id="node1" class="node">
<title> 3 </title>
<ellipse fill="none" stroke="black" cx="191.33" cy="-192" rx="27" ry="18"/>
<text text-anchor="middle" x="191.33" y="-188.3" font-family="Times New Roman,serif" font-size="14.00"> 3 </text>
</g>
<!--  4  -->
<g id="node2" class="node">
<title> 4 </title>
<ellipse fill="none" stroke="black" cx="60.33" cy="-105" rx="27" ry="18"/>
<text text-anchor="middle" x="60.33" y="-101.3" font-family="Times New Roman,serif" font-size="14.00"> 4 </text>
</g>
<!--  3 &#45;&#45; 4  -->
<g id="edge1" class="edge">
<title> 3 &#45;&#45; 4 </title>
<path fill="none" stroke="green" d="M172.56,-178.82C147.66,-162.66 103.95,-134.3 79.06,-118.16"/>
<text text-anchor="middle" x="136.83" y="-144.8" font-family="Times New Roman,serif" font-size="14.00">1</text>
</g>
<!--  8  -->
<g id="node9" class="node">
<title> 8 </title>
<ellipse fill="none" stroke="black" cx="254.33" cy="-105" rx="27" ry="18"/>
<text text-anchor="middle" x="254.33" y="-101.3" font-family="Times New Roman,serif" font-size="14.00"> 8 </text>
</g>
<!--  3 &#45;&#45; 8  -->
<g id="edge13" class="edge">
<title> 3 &#45;&#45; 8 </title>
<path fill="none" stroke="green" d="M202.11,-175.05C208.9,-165.14 217.95,-152.2 226.33,-141 231.27,-134.4 236.92,-127.26 241.85,-121.17"/>
<text text-anchor="middle" x="233.33" y="-144.8" font-family="Times New Roman,serif" font-size="14.00">14</text>
</g>
<!--  9  -->
<g id="node10" class="node">
<title> 9 </title>
<ellipse fill="none" stroke="black" cx="204.33" cy="-18" rx="27" ry="18"/>
<text text-anchor="middle" x="204.33" y="-14.3" font-family="Times New Roman,serif" font-size="14.00"> 9 </text>
</g>
<!--  3 &#45;&#45; 9  -->
<g id="edge17" class="edge">
<title> 3 &#45;&#45; 9 </title>
<path fill="none" stroke="black" d="M192.09,-173.69C193.05,-153.03 194.88,-117.47 197.33,-87 198.72,-69.73 200.8,-50.04 202.33,-36.31"/>
<text text-anchor="middle" x="207.83" y="-101.3" font-family="Times New Roman,serif" font-size="14.00">205</text>
</g>
<!--  0  -->
<g id="node3" class="node">
<title> 0 </title>
<ellipse fill="none" stroke="black" cx="254.33" cy="-366" rx="27" ry="18"/>
<text text-anchor="middle" x="254.33" y="-362.3" font-family="Times New Roman,serif" font-size="14.00"> 0 </text>
</g>
<!--  1  -->
<g id="node4" class="node">
<title> 1 </title>
<ellipse fill="none" stroke="black" cx="254.33" cy="-279" rx="27" ry="18"/>
<text text-anchor="middle" x="254.33" y="-275.3" font-family="Times New Roman,serif" font-size="14.00"> 1 </text>
</g>
<!--  0 &#45;&#45; 1  -->
<g id="edge2" class="edge">
<title> 0 &#45;&#45; 1 </title>
<path fill="none" stroke="green" d="M254.33,-347.8C254.33,-333.15 254.33,-312.19 254.33,-297.47"/>
<text text-anchor="middle" x="257.83" y="-318.8" font-family="Times New Roman,serif" font-size="14.00">2</text>
</g>
<!--  5  -->
<g id="node5" class="node">
<title> 5 </title>
<ellipse fill="none" stroke="black" cx="172.33" cy="-279" rx="27" ry="18"/>
<text text-anchor="middle" x="172.33" y="-275.3" font-family="Times New Roman,serif" font-size="14.00"> 5 </text>
</g>
<!--  0 &#45;&#45; 5  -->
<g id="edge4" class="edge">
<title> 0 &#45;&#45; 5 </title>
<path fill="none" stroke="green" d="M240.05,-350.19C224.99,-334.59 201.44,-310.17 186.45,-294.64"/>
<text text-anchor="middle" x="220.83" y="-318.8" font-family="Times New Roman,serif" font-size="14.00">4</text>
</g>
<!--  2  -->
<g id="node7" class="node">
<title> 2 </title>
<ellipse fill="none" stroke="black" cx="69.33" cy="-279" rx="27" ry="18"/>
<text text-anchor="middle" x="69.33" y="-275.3" font-family="Times New Roman,serif" font-size="14.00"> 2 </text>
</g>
<!--  0 &#45;&#45; 2  -->
<g id="edge9" class="edge">
<title> 0 &#45;&#45; 2 </title>
<path fill="none" stroke="black" d="M232.38,-354.92C196.78,-338.56 126.84,-306.42 91.25,-290.07"/>
<text text-anchor="middle" x="175.83" y="-318.8" font-family="Times New Roman,serif" font-size="14.00">7</text>
</g>
<!--  7  -->
<g id="node11" class="node">
<title> 7 </title>
<ellipse fill="none" stroke="black" cx="323.33" cy="-192" rx="27" ry="18"/>
<text text-anchor="middle" x="323.33" y="-188.3" font-family="Times New Roman,serif" font-size="14.00"> 7 </text>
</g>
<!--  0 &#45;&#45; 7  -->
<g id="edge10" class="edge">
<title> 0 &#45;&#45; 7 </title>
<path fill="none" stroke="green" d="M263.76,-348.85C271.46,-335.28 282.35,-315.23 290.33,-297 300.53,-273.69 301.67,-267.26 309.33,-243 312.75,-232.17 316.19,-219.89 318.81,-210.21"/>
<text text-anchor="middle" x="306.83" y="-275.3" font-family="Times New Roman,serif" font-size="14.00">8</text>
</g>
<!--  6  -->
<g id="node12" class="node">
<title> 6 </title>
<ellipse fill="none" stroke="black" cx="375.33" cy="-279" rx="27" ry="18"/>
<text text-anchor="middle" x="375.33" y="-275.3" font-family="Times New Roman,serif" font-size="14.00"> 6 </text>
</g>
<!--  0 &#45;&#45; 6  -->
<g id="edge11" class="edge">
<title> 0 &#45;&#45; 6 </title>
<path fill="none" stroke="green" d="M278.98,-358.34C296.5,-352.76 319.91,-343.52 337.33,-330 349.22,-320.78 359.33,-306.97 366.13,-296.2"/>
<text text-anchor="middle" x="354.83" y="-318.8" font-family="Times New Roman,serif" font-size="14.00">9</text>
</g>
<!--  1 &#45;&#45; 3  -->
<g id="edge14" class="edge">
<title> 1 &#45;&#45; 3 </title>
<path fill="none" stroke="black" d="M241.85,-262.83C236.92,-256.74 231.27,-249.6 226.33,-243 217.95,-231.8 208.9,-218.86 202.11,-208.95"/>
<text text-anchor="middle" x="233.33" y="-231.8" font-family="Times New Roman,serif" font-size="14.00">31</text>
</g>
<!--  1 &#45;&#45; 8  -->
<g id="edge15" class="edge">
<title> 1 &#45;&#45; 8 </title>
<path fill="none" stroke="black" d="M254.33,-260.56C254.33,-227.59 254.33,-156.49 254.33,-123.48"/>
<text text-anchor="middle" x="261.33" y="-188.3" font-family="Times New Roman,serif" font-size="14.00">50</text>
</g>
<!--  1 &#45;&#45; 7  -->
<g id="edge16" class="edge">
<title> 1 &#45;&#45; 7 </title>
<path fill="none" stroke="black" d="M264.02,-262.14C270.47,-252.03 279.36,-238.84 288.33,-228 294.36,-220.72 301.66,-213.23 308.04,-207.06"/>
<text text-anchor="middle" x="298.83" y="-231.8" font-family="Times New Roman,serif" font-size="14.00">100</text>
</g>
<!--  11  -->
<g id="node6" class="node">
<title> 11 </title>
<ellipse fill="none" stroke="black" cx="119.33" cy="-192" rx="27" ry="18"/>
<text text-anchor="middle" x="119.33" y="-188.3" font-family="Times New Roman,serif" font-size="14.00"> 11 </text>
</g>
<!--  5 &#45;&#45; 11  -->
<g id="edge3" class="edge">
<title> 5 &#45;&#45; 11 </title>
<path fill="none" stroke="green" d="M162.36,-262.01C152.94,-246.91 138.89,-224.38 129.43,-209.21"/>
<text text-anchor="middle" x="151.83" y="-231.8" font-family="Times New Roman,serif" font-size="14.00">3</text>
</g>
<!--  2 &#45;&#45; 4  -->
<g id="edge7" class="edge">
<title> 2 &#45;&#45; 4 </title>
<path fill="none" stroke="green" d="M51.05,-265.33C35.31,-253.21 13.69,-233.34 4.33,-210 -1.63,-195.15 -1.07,-189.06 4.33,-174 12.18,-152.12 30.45,-132.25 44,-119.72"/>
<text text-anchor="middle" x="7.83" y="-188.3" font-family="Times New Roman,serif" font-size="14.00">6</text>
</g>
<!--  2 &#45;&#45; 11  -->
<g id="edge6" class="edge">
<title> 2 &#45;&#45; 11 </title>
<path fill="none" stroke="green" d="M78.67,-261.75C84.33,-251.95 91.7,-239.24 98.33,-228 102,-221.77 106.08,-214.95 109.66,-209"/>
<text text-anchor="middle" x="101.83" y="-231.8" font-family="Times New Roman,serif" font-size="14.00">5</text>
</g>
<!--  10  -->
<g id="node8" class="node">
<title> 10 </title>
<ellipse fill="none" stroke="black" cx="47.33" cy="-192" rx="27" ry="18"/>
<text text-anchor="middle" x="47.33" y="-188.3" font-family="Times New Roman,serif" font-size="14.00"> 10 </text>
</g>
<!--  2 &#45;&#45; 10  -->
<g id="edge5" class="edge">
<title> 2 &#45;&#45; 10 </title>
<path fill="none" stroke="green" d="M64.88,-260.8C61.06,-246.05 55.59,-224.92 51.77,-210.18"/>
<text text-anchor="middle" x="63.83" y="-231.8" font-family="Times New Roman,serif" font-size="14.00">5</text>
</g>
<!--  8 &#45;&#45; 9  -->
<g id="edge8" class="edge">
<title> 8 &#45;&#45; 9 </title>
<path fill="none" stroke="green" d="M244.92,-88.01C236.04,-72.91 222.79,-50.38 213.86,-35.21"/>
<text text-anchor="middle" x="234.83" y="-57.8" font-family="Times New Roman,serif" font-size="14.00">6</text>
</g>
<!--  6 &#45;&#45; 7  -->
<g id="edge12" class="edge">
<title> 6 &#45;&#45; 7 </title>
<path fill="none" stroke="black" d="M365.55,-262.01C356.31,-246.91 342.52,-224.38 333.24,-209.21"/>
<text text-anchor="middle" x="359.33" y="-231.8" font-family="Times New Roman,serif" font-size="14.00">10</text>
</g>
</g>
</svg>
